<?xml version="1.0" encoding="UTF-8"?>
<svg xmlns="http://www.w3.org/2000/svg" xmlns:xlink="http://www.w3.org/1999/xlink" width="129px" height="28px" viewBox="0 0 129 28" version="1.1">
<g id="surface1">
<path style=" stroke:none;fill-rule:nonzero;fill:rgb(100%,100%,100%);fill-opacity:1;" d="M 6.640625 23.308594 L 6.445312 23.132812 L 6.226562 22.902344 L 6.148438 22.804688 L 6.203125 22.714844 L 6.269531 22.683594 L 6.648438 22.710938 L 7.625 22.863281 L 8.222656 22.964844 L 9.335938 23 L 9.867188 22.988281 L 10.753906 22.828125 L 11.152344 22.730469 L 11.6875 22.398438 L 11.792969 22.3125 L 11.917969 22.105469 L 11.957031 21.765625 L 11.933594 21.636719 L 11.683594 21.425781 L 11.527344 21.335938 L 11.0625 21.183594 L 10.816406 21.113281 L 10.203125 21.019531 L 9.886719 20.980469 L 9.199219 20.945312 L 8.503906 20.929688 L 7.175781 21.082031 L 6.867188 21.140625 L 6.355469 21.300781 L 5.804688 21.613281 L 5.542969 21.863281 L 5.085938 22.023438 L 4.375 21.78125 L 4.238281 21.683594 L 3.953125 21.347656 L 3.800781 21.160156 L 3.5 20.6875 L 3.195312 20.175781 L 2.621094 18.921875 L 2.359375 18.285156 L 1.988281 17.054688 L 1.914062 16.765625 L 1.828125 16.257812 L 1.816406 15.644531 L 1.851562 15.40625 L 1.921875 15.132812 L 1.957031 15.035156 L 2.046875 15.070312 L 2.097656 15.128906 L 2.226562 15.5 L 2.492188 16.457031 L 2.671875 17.144531 L 3.183594 18.40625 L 3.457031 19 L 4.0625 19.945312 L 4.214844 20.148438 L 4.515625 20.480469 L 4.664062 20.625 L 4.945312 20.8125 L 5.082031 20.890625 L 5.328125 20.921875 L 5.636719 20.757812 L 5.75 20.640625 L 5.863281 20.410156 L 5.90625 20.296875 L 5.886719 20.046875 L 5.855469 19.917969 L 5.683594 19.605469 L 5.246094 19.019531 L 4.992188 18.707031 L 4.507812 17.742188 L 4.027344 16.269531 L 3.9375 15.753906 L 3.554688 14.9375 L 2.734375 14.121094 L 2.546875 14.023438 L 2.257812 13.792969 L 2.125 13.671875 L 1.945312 13.367188 L 1.863281 13.203125 L 1.773438 12.796875 L 1.71875 12.035156 L 1.71875 11.8125 L 1.792969 11.285156 L 1.839844 11.007812 L 1.996094 10.398438 L 2.164062 9.777344 L 2.660156 8.480469 L 2.929688 7.855469 L 3.496094 6.828125 L 3.636719 6.605469 L 3.90625 6.273438 L 4.265625 5.988281 L 4.425781 5.929688 L 4.613281 5.964844 L 4.65625 6.199219 L 4.339844 6.957031 L 3.8125 8.195312 L 3.570312 8.777344 L 3.183594 9.714844 L 3.003906 10.148438 L 2.742188 10.828125 L 2.628906 11.140625 L 2.46875 11.609375 L 2.402344 11.820312 L 2.34375 12.125 L 2.320312 12.257812 L 2.339844 12.441406 L 2.613281 12.796875 L 2.800781 12.929688 L 3.125 13.023438 L 3.277344 13.042969 L 3.523438 12.925781 L 3.632812 12.839844 L 3.78125 12.519531 L 3.871094 11.828125 L 3.871094 11.707031 L 3.957031 11.34375 L 4.011719 11.140625 L 4.191406 10.664062 L 4.960938 9.105469 L 5.132812 8.816406 L 5.40625 8.265625 L 5.53125 7.996094 L 5.699219 7.5 L 5.765625 7.265625 L 5.828125 6.84375 L 5.785156 6.3125 L 5.710938 6.046875 L 5.722656 5.554688 L 5.753906 5.316406 L 5.957031 4.886719 L 6.082031 4.6875 L 6.445312 4.332031 L 6.644531 4.171875 L 7.140625 3.910156 L 7.40625 3.792969 L 8.011719 3.636719 L 8.324219 3.570312 L 9.007812 3.527344 L 9.355469 3.523438 L 10.09375 3.605469 L 11.222656 3.886719 L 11.707031 4.050781 L 12.363281 4.488281 L 12.636719 4.726562 L 12.878906 5.34375 L 12.914062 5.515625 L 12.90625 5.894531 L 12.886719 6.097656 L 12.78125 6.542969 L 12.710938 6.773438 L 12.503906 7.289062 L 12.082031 8.160156 L 11.933594 8.433594 L 11.601562 8.894531 L 11.425781 9.113281 L 11.015625 9.460938 L 10.800781 9.628906 L 10.28125 9.898438 L 9.34375 10.238281 L 8.800781 10.390625 L 7.945312 10.90625 L 7.554688 11.191406 L 7.011719 11.9375 L 6.785156 12.339844 L 6.582031 13.28125 L 6.683594 14.890625 L 6.773438 15.296875 L 7.003906 15.914062 L 7.132812 16.195312 L 7.523438 16.628906 L 7.75 16.828125 L 8.402344 17.164062 L 9.777344 17.65625 L 10.140625 17.761719 L 10.789062 18.121094 L 11.097656 18.324219 L 11.632812 18.820312 L 11.886719 19.078125 L 12.285156 19.664062 L 12.46875 19.964844 L 12.71875 20.585938 L 12.828125 20.898438 L 12.914062 21.515625 L 12.9375 21.816406 L 12.84375 22.375 L 12.769531 22.640625 L 12.480469 23.09375 L 11.792969 23.589844 L 11.382812 23.769531 L 10.425781 23.972656 L 9.941406 24.046875 L 8.953125 24.039062 L 8.472656 24.015625 L 7.609375 23.820312 L 7.210938 23.695312 M 10.953125 19.671875 L 10.988281 19.609375 L 10.890625 19.457031 L 10.824219 19.375 L 10.570312 19.195312 L 10.28125 19.019531 L 9.433594 18.667969 L 9.003906 18.507812 L 8.183594 18.3125 L 7.996094 18.285156 L 7.703125 18.273438 L 7.429688 18.367188 L 7.367188 18.4375 L 7.34375 18.769531 L 7.460938 19.382812 L 7.496094 19.488281 L 7.671875 19.667969 L 7.777344 19.757812 L 8.0625 19.894531 L 8.371094 20.023438 L 9.152344 20.140625 L 9.546875 20.167969 L 10.269531 20.078125 L 10.433594 20.039062 L 10.695312 19.917969 L 10.808594 19.851562 M 5.988281 15.902344 L 5.839844 15.582031 L 5.433594 15.082031 L 4.871094 14.738281 L 4.675781 14.738281 L 4.441406 14.839844 L 4.355469 14.914062 L 4.351562 15.21875 L 4.382812 15.398438 L 4.613281 15.96875 L 5.246094 17.191406 L 5.441406 17.546875 L 5.726562 18.023438 L 5.855469 18.222656 L 6.042969 18.410156 L 6.125 18.46875 L 6.234375 18.386719 L 6.359375 17.988281 L 6.40625 17.734375 L 6.324219 16.992188 L 6.257812 16.613281 M 5.976562 12.207031 L 6.132812 11.707031 L 6.320312 10.816406 L 6.398438 10.398438 L 6.4375 9.746094 L 6.4375 9.460938 L 6.320312 9.136719 L 5.976562 9.117188 L 5.890625 9.175781 L 5.710938 9.410156 L 5.617188 9.539062 L 5.425781 9.886719 L 5.234375 10.257812 L 4.886719 11.164062 L 4.730469 11.621094 L 4.53125 12.460938 L 4.492188 12.648438 L 4.472656 12.964844 L 4.527344 13.28125 L 4.644531 13.5 L 4.886719 13.699219 L 5.003906 13.757812 L 5.25 13.65625 L 5.371094 13.5625 L 5.617188 13.15625 L 5.734375 12.914062 M 10.929688 8.328125 L 11.0625 8.179688 L 11.03125 7.914062 L 10.964844 7.789062 L 10.609375 7.59375 L 10.398438 7.511719 L 9.804688 7.421875 L 8.746094 7.457031 L 8.359375 7.507812 L 7.808594 7.808594 L 7.378906 8.539062 L 7.34375 8.742188 L 7.347656 9.019531 L 7.371094 9.132812 L 7.53125 9.25 L 7.632812 9.289062 L 8.007812 9.269531 L 8.878906 9.113281 L 9.335938 9.019531 L 10.164062 8.738281 L 10.351562 8.671875 L 10.648438 8.527344 L 10.777344 8.453125 M 11.949219 5.953125 L 11.996094 5.796875 L 11.746094 5.453125 L 11.578125 5.28125 L 11.015625 4.953125 L 10.707031 4.800781 L 9.980469 4.574219 L 8.871094 4.421875 L 8.582031 4.421875 L 7.972656 4.609375 L 7.675781 4.726562 L 7.15625 5.070312 L 6.917969 5.25 L 6.613281 5.648438 L 6.558594 6.191406 L 6.601562 6.269531 L 6.878906 6.386719 L 7.046875 6.441406 L 7.515625 6.507812 L 8.023438 6.566406 L 9.308594 6.554688 L 9.949219 6.527344 L 11.078125 6.355469 L 11.316406 6.308594 L 11.679688 6.179688 L 11.828125 6.109375 M 18.574219 20.042969 L 18.496094 19.949219 L 18.355469 19.488281 L 18.292969 19.21875 L 18.199219 18.417969 L 18.148438 17.980469 L 18.09375 16.878906 L 18.058594 14.917969 L 18.058594 14.195312 L 18.078125 12.996094 L 18.09375 12.4375 L 18.164062 11.527344 L 18.207031 11.113281 L 18.355469 10.457031 L 18.445312 10.160156 L 18.710938 9.710938 L 18.855469 9.515625 L 19.257812 9.238281 L 19.484375 9.121094 L 20.058594 8.980469 L 20.375 8.921875 L 21.152344 8.867188 L 22.578125 8.84375 L 22.988281 8.84375 L 23.675781 8.851562 L 24.003906 8.863281 L 24.535156 8.894531 L 24.78125 8.914062 L 25.171875 8.976562 L 25.351562 9.007812 L 25.613281 9.105469 L 25.730469 9.15625 L 25.882812 9.292969 L 25.941406 9.367188 L 25.996094 9.554688 L 25.851562 10.316406 L 25.804688 10.453125 L 25.578125 10.664062 L 25.433594 10.761719 L 24.988281 10.890625 L 24.734375 10.949219 L 24.015625 11.011719 L 22.574219 11.050781 L 19.566406 11.050781 L 19.566406 18.421875 L 22.683594 18.5625 L 23.027344 18.582031 L 23.609375 18.613281 L 23.886719 18.632812 L 24.339844 18.671875 L 24.757812 18.714844 L 25.28125 18.847656 L 25.496094 18.921875 L 25.699219 19.15625 L 25.800781 19.667969 L 25.800781 19.890625 L 25.707031 20.191406 L 25.628906 20.316406 L 25.261719 20.480469 L 25.152344 20.507812 L 24.84375 20.558594 L 24.675781 20.578125 L 24.253906 20.601562 L 24.023438 20.617188 L 23.464844 20.625 L 22.445312 20.632812 L 21.9375 20.632812 L 21.027344 20.585938 L 20.59375 20.5625 L 19.867188 20.46875 L 19.527344 20.421875 L 19.027344 20.28125 L 18.808594 20.214844 M 32.757812 19.800781 L 32.683594 19.640625 L 32.417969 18.984375 L 32.265625 18.613281 L 31.890625 17.636719 L 31.691406 17.113281 L 31.25 15.933594 L 31.019531 15.335938 L 30.558594 14.09375 L 30.332031 13.472656 L 29.902344 12.296875 L 29.695312 11.726562 L 29.34375 10.738281 L 29.179688 10.277344 L 28.957031 9.613281 L 28.910156 9.472656 L 28.847656 9.269531 L 28.808594 9.113281 L 28.808594 9.039062 L 29.046875 8.921875 L 29.621094 8.84375 L 29.773438 8.84375 L 30.078125 9.039062 L 30.230469 9.175781 L 30.558594 9.695312 L 30.726562 10 L 31.125 10.90625 L 31.820312 12.773438 L 32.007812 13.3125 L 32.382812 14.300781 L 32.5625 14.765625 L 32.886719 15.546875 L 33.042969 15.90625 L 33.28125 16.390625 L 33.511719 16.703125 L 33.554688 16.703125 L 33.738281 16.390625 L 33.847656 16.191406 L 34.140625 15.546875 L 34.296875 15.195312 L 34.65625 14.300781 L 35.234375 12.773438 L 35.5 12.035156 L 35.945312 10.914062 L 36.160156 10.410156 L 36.519531 9.703125 L 36.691406 9.398438 L 37.011719 9.042969 L 37.460938 8.84375 L 37.683594 8.84375 L 38.023438 8.949219 L 38.246094 9.210938 L 38.238281 9.28125 L 38.183594 9.515625 L 38.148438 9.652344 L 38.042969 10.007812 L 37.921875 10.382812 L 37.554688 11.417969 L 37.359375 11.960938 L 36.875 13.222656 L 36.628906 13.867188 L 36.089844 15.207031 L 35.824219 15.871094 L 35.289062 17.144531 L 35.027344 17.761719 L 34.558594 18.824219 L 34.339844 19.308594 L 33.992188 20.011719 L 33.917969 20.160156 L 33.796875 20.355469 L 33.675781 20.5 L 33.535156 20.554688 L 33.195312 20.371094 L 33.03125 20.25 M 41.917969 19.460938 L 41.789062 19.238281 L 41.601562 18.675781 L 41.519531 18.367188 L 41.417969 17.5625 L 41.375 17.113281 L 41.34375 15.949219 L 41.371094 13.691406 L 41.496094 9.085938 L 45.503906 8.945312 L 45.992188 8.929688 L 46.796875 8.902344 L 47.175781 8.890625 L 47.777344 8.886719 L 48.050781 8.886719 L 48.484375 8.90625 L 48.675781 8.914062 L 48.957031 8.96875 L 49.082031 9 L 49.238281 9.085938 L 49.308594 9.136719 L 49.375 9.269531 L 49.371094 9.875 L 49.34375 10.121094 L 49.214844 10.453125 L 49.128906 10.601562 L 48.777344 10.78125 L 48.570312 10.859375 L 47.859375 10.941406 L 47.648438 10.953125 L 47.140625 10.972656 L 46.226562 11 L 43.214844 11.050781 L 43.214844 18.421875 L 46.332031 18.5625 L 46.675781 18.582031 L 47.261719 18.613281 L 47.535156 18.632812 L 47.988281 18.671875 L 48.410156 18.714844 L 48.929688 18.847656 L 49.144531 18.921875 L 49.351562 19.15625 L 49.449219 19.667969 L 49.449219 19.890625 L 49.351562 20.191406 L 49.273438 20.320312 L 48.902344 20.480469 L 48.789062 20.515625 L 48.472656 20.558594 L 48.304688 20.578125 L 47.871094 20.601562 L 47.636719 20.617188 L 47.0625 20.625 L 46.019531 20.632812 L 45.628906 20.632812 L 44.96875 20.625 L 44.65625 20.621094 L 44.140625 20.597656 L 43.65625 20.574219 L 43.023438 20.449219 L 42.742188 20.367188 L 42.375 20.097656 L 42.207031 19.933594 M 58.910156 17.179688 L 58.910156 16.378906 L 58.984375 14.976562 L 59.035156 14.304688 L 59.21875 13.15625 L 59.328125 12.609375 L 59.636719 11.695312 L 59.808594 11.265625 L 60.246094 10.566406 L 60.488281 10.242188 L 61.074219 9.75 L 61.382812 9.53125 L 62.125 9.226562 L 62.519531 9.09375 L 63.429688 8.960938 L 64.996094 8.941406 L 67.726562 9.085938 L 67.84375 14.859375 L 67.863281 15.542969 L 67.878906 16.671875 L 67.886719 17.207031 L 67.894531 18.0625 L 67.894531 18.460938 L 67.878906 19.085938 L 67.867188 19.367188 L 67.828125 19.792969 L 67.800781 19.984375 L 67.734375 20.242188 L 67.695312 20.355469 L 67.585938 20.5 L 67.121094 20.632812 L 66.972656 20.632812 L 66.726562 20.558594 L 66.617188 20.503906 L 66.445312 20.316406 L 66.363281 20.210938 L 66.25 19.898438 L 66.144531 19.28125 L 66.109375 18.957031 L 66.003906 18.519531 L 65.9375 18.332031 L 65.648438 18.097656 L 65.464844 18.003906 L 64.828125 17.894531 L 64.636719 17.871094 L 64.171875 17.835938 L 63.316406 17.78125 L 60.628906 17.636719 L 60.628906 19.429688 L 60.589844 19.859375 L 60.5625 20.058594 L 60.453125 20.320312 L 60.386719 20.433594 L 60.1875 20.5625 L 59.769531 20.632812 L 59.578125 20.632812 L 59.304688 20.535156 L 59.191406 20.449219 L 59.046875 20.078125 L 58.988281 19.839844 L 58.9375 19.035156 L 58.921875 18.800781 L 58.914062 18.222656 L 58.910156 17.914062 M 66.132812 13.386719 L 66.105469 12.816406 L 66.035156 12.054688 L 65.988281 11.726562 L 65.820312 11.34375 L 65.710938 11.183594 L 65.351562 11.03125 L 64.476562 10.90625 L 63.96875 10.855469 L 63.011719 11.074219 L 62.554688 11.222656 L 61.785156 11.773438 L 61.433594 12.085938 L 60.945312 12.890625 L 60.628906 14.28125 L 60.628906 15.71875 L 66.265625 15.71875 L 66.132812 13.386719 M 71.808594 14.738281 L 71.808594 14.039062 L 71.8125 12.886719 L 71.820312 12.34375 L 71.832031 11.464844 L 71.839844 11.0625 L 71.867188 10.425781 L 71.882812 10.132812 L 71.933594 9.703125 L 71.964844 9.503906 L 72.042969 9.238281 L 72.085938 9.121094 L 72.191406 8.980469 L 72.671875 8.84375 L 72.871094 8.84375 L 73.144531 8.964844 L 73.261719 9.066406 L 73.402344 9.578125 L 73.429688 9.742188 L 73.46875 10.183594 L 73.488281 10.429688 L 73.507812 11.050781 L 73.515625 11.390625 L 73.527344 12.226562 L 73.53125 13.753906 L 73.53125 18.667969 L 77.121094 18.667969 L 77.734375 18.671875 L 78.027344 18.675781 L 78.496094 18.695312 L 78.71875 18.707031 L 79.070312 18.742188 L 79.226562 18.761719 L 79.46875 18.824219 L 79.6875 18.886719 L 79.890625 19.117188 L 79.980469 19.648438 L 79.980469 19.875 L 79.875 20.191406 L 79.789062 20.320312 L 79.359375 20.484375 L 79.222656 20.515625 L 78.859375 20.5625 L 78.65625 20.582031 L 78.136719 20.605469 L 77.855469 20.617188 L 77.160156 20.625 L 75.894531 20.632812 L 71.808594 20.632812 L 71.808594 14.738281 M 83.625 19.460938 L 83.496094 19.238281 L 83.3125 18.675781 L 83.230469 18.367188 L 83.128906 17.5625 L 83.085938 17.113281 L 83.054688 15.949219 L 83.082031 13.691406 L 83.203125 9.085938 L 87.210938 8.945312 L 87.703125 8.929688 L 88.507812 8.902344 L 88.886719 8.890625 L 89.488281 8.886719 L 89.761719 8.886719 L 90.191406 8.90625 L 90.386719 8.914062 L 90.664062 8.96875 L 90.789062 9 L 90.949219 9.085938 L 91.019531 9.136719 L 91.085938 9.269531 L 91.082031 9.875 L 91.050781 10.121094 L 90.921875 10.453125 L 90.835938 10.601562 L 90.488281 10.78125 L 90.277344 10.859375 L 89.570312 10.941406 L 89.359375 10.953125 L 88.851562 10.972656 L 87.933594 11 L 84.925781 11.050781 L 84.925781 18.421875 L 88.042969 18.5625 L 88.386719 18.582031 L 88.972656 18.613281 L 89.246094 18.632812 L 89.699219 18.671875 L 90.121094 18.714844 L 90.640625 18.847656 L 90.855469 18.921875 L 91.0625 19.15625 L 91.160156 19.667969 L 91.160156 19.890625 L 91.0625 20.191406 L 90.984375 20.320312 L 90.613281 20.480469 L 90.496094 20.515625 L 90.183594 20.558594 L 90.015625 20.578125 L 89.582031 20.601562 L 89.34375 20.617188 L 88.773438 20.625 L 87.730469 20.632812 L 87.335938 20.632812 L 86.679688 20.625 L 86.367188 20.621094 L 85.847656 20.597656 L 85.367188 20.574219 L 84.730469 20.449219 L 84.453125 20.367188 L 84.085938 20.097656 L 83.917969 19.933594 M 94.695312 14.859375 L 94.816406 9.085938 L 98.675781 8.945312 L 99.234375 8.925781 L 100.167969 8.910156 L 100.605469 8.910156 L 101.328125 8.960938 L 101.664062 8.988281 L 102.203125 9.113281 L 102.449219 9.1875 L 102.820312 9.402344 L 102.992188 9.523438 L 103.238281 9.859375 L 103.347656 10.046875 L 103.484375 10.515625 L 103.539062 10.769531 L 103.601562 11.398438 L 103.628906 12.527344 L 103.628906 13.023438 L 103.464844 13.960938 L 103.359375 14.417969 L 103.007812 15.222656 L 102.808594 15.601562 L 102.296875 16.210938 L 101.398438 16.835938 L 101.300781 16.875 L 101.238281 17.046875 L 101.226562 17.148438 L 101.332031 17.449219 L 101.410156 17.617188 L 101.695312 18.046875 L 102.320312 18.847656 L 103.796875 20.632812 L 102.25 20.632812 L 101.796875 20.527344 L 101.574219 20.460938 L 101.125 20.199219 L 100.898438 20.042969 L 100.414062 19.589844 L 99.597656 18.667969 L 99.15625 18.125 L 98.347656 17.277344 L 98.167969 17.101562 L 97.875 16.859375 L 97.59375 16.703125 L 97.480469 16.703125 L 97.300781 16.410156 L 97.179688 15.71875 L 97.179688 15.511719 L 97.25 15.21875 L 97.300781 15.085938 L 97.515625 14.917969 L 97.648438 14.84375 L 98.074219 14.769531 L 99.007812 14.726562 L 99.601562 14.726562 L 100.476562 14.617188 L 100.871094 14.546875 L 101.382812 14.25 L 101.597656 14.078125 L 101.800781 13.5625 L 101.835938 12.472656 L 101.800781 12.125 L 101.707031 11.667969 L 101.644531 11.464844 L 101.371094 11.238281 L 101.195312 11.152344 L 100.585938 11.078125 L 100.40625 11.066406 L 99.953125 11.058594 L 99.113281 11.050781 L 96.535156 11.050781 L 96.410156 15.84375 L 96.398438 16.390625 L 96.371094 17.316406 L 96.355469 17.75 L 96.320312 18.449219 L 96.304688 18.78125 L 96.261719 19.296875 L 96.234375 19.535156 L 96.171875 19.890625 L 96.109375 20.214844 L 95.902344 20.503906 L 95.429688 20.632812 L 95.226562 20.632812 L 94.957031 20.5 L 94.898438 20.445312 L 94.8125 20.253906 L 94.769531 20.140625 L 94.710938 19.800781 L 94.691406 19.613281 L 94.660156 19.097656 L 94.652344 18.8125 L 94.648438 18.078125 L 94.648438 17.679688 L 94.660156 16.683594 L 94.667969 16.152344 M 109.988281 15.84375 L 109.863281 11.050781 L 108.253906 10.898438 L 107.9375 10.871094 L 107.464844 10.78125 L 107.257812 10.734375 L 106.972656 10.582031 L 106.851562 10.496094 L 106.714844 10.265625 L 106.640625 9.796875 L 106.640625 9.574219 L 106.757812 9.273438 L 106.847656 9.148438 L 107.304688 8.988281 L 107.453125 8.957031 L 107.84375 8.910156 L 108.058594 8.890625 L 108.605469 8.867188 L 108.902344 8.855469 L 109.636719 8.847656 L 110.96875 8.84375 L 111.5 8.84375 L 112.375 8.847656 L 112.78125 8.847656 L 113.433594 8.863281 L 113.734375 8.871094 L 114.195312 8.90625 L 114.40625 8.925781 L 114.707031 8.988281 L 114.839844 9.023438 L 115.011719 9.121094 L 115.085938 9.175781 L 115.164062 9.320312 L 115.164062 9.949219 L 115.132812 10.1875 L 115.035156 10.515625 L 114.972656 10.664062 L 114.765625 10.832031 L 114.640625 10.894531 L 114.257812 10.941406 L 113.414062 10.890625 L 111.800781 10.734375 L 111.800781 16.253906 L 111.796875 17.210938 L 111.792969 17.660156 L 111.777344 18.390625 L 111.769531 18.730469 L 111.738281 19.265625 L 111.722656 19.511719 L 111.671875 19.878906 L 111.613281 20.210938 L 111.417969 20.503906 L 110.957031 20.632812 L 110.765625 20.632812 L 110.492188 20.5 L 110.375 20.394531 L 110.226562 19.878906 L 110.191406 19.71875 L 110.140625 19.285156 L 110.113281 19.042969 L 110.078125 18.441406 L 110.058594 18.113281 L 110.027344 17.304688 L 110.015625 16.875 M 118.25 19.648438 L 118.25 19.429688 L 118.339844 19.117188 L 118.414062 18.984375 L 118.753906 18.824219 L 118.859375 18.789062 L 119.148438 18.742188 L 119.308594 18.71875 L 119.707031 18.695312 L 119.925781 18.679688 L 120.457031 18.671875 L 121.421875 18.667969 L 122.019531 18.667969 L 122.953125 18.628906 L 123.382812 18.597656 L 124.027344 18.496094 L 124.320312 18.429688 L 124.738281 18.25 L 125.167969 17.875 L 125.277344 17.726562 L 125.386719 17.4375 L 125.425781 17.296875 L 125.40625 17.03125 L 125.375 16.902344 L 125.222656 16.664062 L 125.132812 16.550781 L 124.863281 16.347656 L 124.5625 16.152344 L 123.648438 15.886719 L 121.851562 15.71875 L 121.515625 15.71875 L 120.914062 15.679688 L 120.628906 15.652344 L 120.136719 15.550781 L 119.90625 15.492188 L 119.515625 15.320312 L 119.328125 15.226562 L 119.027344 14.988281 L 118.75 14.722656 L 118.429688 13.941406 L 118.25 12.320312 L 118.25 11.960938 L 118.296875 11.34375 L 118.332031 11.050781 L 118.460938 10.554688 L 118.535156 10.324219 L 118.757812 9.941406 L 118.878906 9.765625 L 119.207031 9.484375 L 119.390625 9.363281 L 119.839844 9.175781 L 120.085938 9.09375 L 120.675781 8.988281 L 120.988281 8.949219 L 121.734375 8.921875 L 123.035156 8.941406 L 123.382812 8.960938 L 123.972656 8.988281 L 124.253906 9.007812 L 124.714844 9.046875 L 125.136719 9.09375 L 125.667969 9.226562 L 125.890625 9.300781 L 126.101562 9.53125 L 126.203125 10.035156 L 126.203125 10.246094 L 126.117188 10.535156 L 126.054688 10.664062 L 125.746094 10.808594 L 125.546875 10.859375 L 124.890625 10.894531 L 124.699219 10.898438 L 124.226562 10.890625 L 123.375 10.859375 L 122.84375 10.839844 L 122.007812 10.847656 L 121.625 10.855469 L 121.046875 10.941406 L 120.777344 10.988281 L 120.398438 11.15625 L 119.992188 11.515625 L 119.867188 11.679688 L 119.71875 12 L 119.664062 12.152344 L 119.648438 12.4375 L 119.652344 12.574219 L 119.761719 12.820312 L 119.832031 12.9375 L 120.058594 13.144531 L 120.1875 13.242188 L 120.539062 13.40625 L 120.722656 13.480469 L 121.183594 13.597656 L 121.425781 13.644531 L 121.996094 13.714844 L 122.96875 13.753906 L 123.328125 13.753906 L 123.96875 13.796875 L 124.273438 13.828125 L 124.800781 13.9375 L 125.050781 13.996094 L 125.472656 14.171875 L 125.671875 14.269531 L 126 14.527344 L 126.148438 14.664062 L 126.390625 15.003906 L 126.496094 15.183594 L 126.652344 15.617188 L 126.722656 15.84375 L 126.800781 16.367188 L 126.851562 17.277344 L 126.851562 17.621094 L 126.800781 18.203125 L 126.769531 18.480469 L 126.636719 18.953125 L 126.558594 19.171875 L 126.328125 19.535156 L 126.199219 19.703125 L 125.851562 19.972656 L 125.664062 20.101562 L 125.1875 20.289062 L 124.929688 20.371094 L 124.300781 20.488281 L 123.964844 20.542969 L 123.164062 20.597656 L 121.761719 20.632812 L 121.359375 20.632812 L 120.6875 20.625 L 120.371094 20.621094 L 119.855469 20.605469 L 119.613281 20.59375 L 119.234375 20.558594 L 119.058594 20.539062 L 118.796875 20.480469 L 118.558594 20.410156 L 118.34375 20.183594 L 118.265625 20.046875 M 43.75 15.425781 L 43.675781 15.347656 L 43.632812 15.015625 L 43.722656 14.441406 L 43.761719 14.324219 L 43.964844 14.136719 L 44.082031 14.050781 L 44.457031 13.921875 L 44.667969 13.863281 L 45.222656 13.792969 L 46.273438 13.753906 L 46.78125 13.753906 L 47.488281 13.789062 L 47.804688 13.8125 L 48.195312 13.921875 L 48.351562 13.988281 L 48.511719 14.222656 L 48.589844 14.738281 L 48.589844 14.953125 L 48.511719 15.253906 L 48.457031 15.386719 L 48.195312 15.550781 L 48.035156 15.621094 L 47.503906 15.683594 L 46.296875 15.71875 L 45.664062 15.71875 L 44.597656 15.632812 L 44.371094 15.605469 L 44.027344 15.539062 L 43.882812 15.503906 M 85.355469 15.226562 L 85.222656 14.984375 L 85.214844 14.578125 L 85.257812 14.398438 L 85.601562 14.117188 L 85.816406 14 L 86.515625 13.847656 L 87.960938 13.753906 L 88.472656 13.753906 L 89.191406 13.789062 L 89.507812 13.8125 L 89.898438 13.921875 L 90.0625 13.988281 L 90.222656 14.222656 L 90.300781 14.738281 L 90.300781 14.953125 L 90.222656 15.253906 L 90.164062 15.386719 L 89.898438 15.550781 L 89.738281 15.621094 L 89.191406 15.683594 L 87.960938 15.71875 L 87.316406 15.71875 L 86.226562 15.578125 L 85.996094 15.53125 L 85.644531 15.417969 L 85.492188 15.359375 Z M 85.355469 15.226562 "/>
</g>
</svg>
