<svg xmlns="http://www.w3.org/2000/svg" width="300" height="57" viewBox="0 0 300 57">
<g>
<path d="M 15.44,47.45 L 14.99,47.09 L 14.48,46.62 L 14.30,46.42 L 14.43,46.24 L 14.58,46.18 L 15.46,46.23 L 17.73,46.54 L 19.12,46.75 L 21.71,46.82 L 22.95,46.80 L 25.01,46.47 L 25.94,46.27 L 27.18,45.60 L 27.43,45.42 L 27.72,45.00 L 27.81,44.31 L 27.75,44.05 L 27.17,43.62 L 26.81,43.43 L 25.73,43.12 L 25.15,42.98 L 23.73,42.79 L 22.99,42.71 L 21.39,42.64 L 19.78,42.61 L 16.69,42.92 L 15.97,43.04 L 14.78,43.36 L 13.50,44.00 L 12.89,44.51 L 11.83,44.83 L 10.17,44.34 L 9.86,44.14 L 9.19,43.46 L 8.84,43.08 L 8.14,42.11 L 7.43,41.07 L 6.10,38.52 L 5.49,37.22 L 4.62,34.72 L 4.45,34.13 L 4.25,33.10 L 4.22,31.85 L 4.31,31.36 L 4.47,30.81 L 4.55,30.61 L 4.76,30.68 L 4.88,30.80 L 5.18,31.55 L 5.80,33.50 L 6.21,34.90 L 7.40,37.47 L 8.04,38.68 L 9.45,40.60 L 9.80,41.02 L 10.50,41.69 L 10.85,41.99 L 11.50,42.37 L 11.82,42.53 L 12.39,42.59 L 13.11,42.26 L 13.37,42.02 L 13.64,41.55 L 13.74,41.32 L 13.69,40.81 L 13.62,40.55 L 13.22,39.91 L 12.20,38.72 L 11.61,38.08 L 10.48,36.12 L 9.37,33.12 L 9.16,32.07 L 8.27,30.41 L 6.36,28.75 L 5.92,28.55 L 5.25,28.08 L 4.94,27.83 L 4.52,27.21 L 4.33,26.88 L 4.12,26.05 L 4.00,24.50 L 4.00,24.05 L 4.17,22.97 L 4.28,22.41 L 4.64,21.17 L 5.03,19.90 L 6.19,17.26 L 6.81,15.99 L 8.13,13.90 L 8.46,13.45 L 9.08,12.77 L 9.92,12.19 L 10.29,12.07 L 10.73,12.14 L 10.83,12.62 L 10.09,14.16 L 8.87,16.68 L 8.30,17.87 L 7.40,19.78 L 6.99,20.66 L 6.38,22.04 L 6.11,22.68 L 5.74,23.63 L 5.59,24.06 L 5.45,24.68 L 5.40,24.95 L 5.44,25.33 L 6.08,26.05 L 6.51,26.32 L 7.27,26.51 L 7.62,26.55 L 8.19,26.31 L 8.45,26.14 L 8.79,25.49 L 9.00,24.08 L 9.00,23.83 L 9.20,23.09 L 9.33,22.68 L 9.75,21.71 L 11.54,18.54 L 11.94,17.95 L 12.57,16.83 L 12.86,16.28 L 13.25,15.27 L 13.41,14.79 L 13.55,13.93 L 13.45,12.85 L 13.28,12.31 L 13.31,11.31 L 13.38,10.82 L 13.85,9.95 L 14.14,9.54 L 14.99,8.82 L 15.45,8.49 L 16.61,7.96 L 17.22,7.72 L 18.63,7.40 L 19.36,7.27 L 20.95,7.18 L 21.76,7.17 L 23.47,7.34 L 26.10,7.91 L 27.23,8.25 L 28.75,9.14 L 29.39,9.62 L 29.95,10.88 L 30.03,11.23 L 30.01,12.00 L 29.97,12.41 L 29.72,13.32 L 29.56,13.79 L 29.08,14.84 L 28.10,16.61 L 27.75,17.17 L 26.98,18.11 L 26.57,18.55 L 25.62,19.26 L 25.12,19.60 L 23.91,20.15 L 21.73,20.84 L 20.47,21.15 L 18.48,22.20 L 17.57,22.78 L 16.31,24.30 L 15.78,25.12 L 15.31,27.04 L 15.54,30.31 L 15.75,31.14 L 16.29,32.40 L 16.59,32.97 L 17.50,33.85 L 18.02,34.26 L 19.54,34.94 L 22.74,35.94 L 23.58,36.16 L 25.09,36.89 L 25.81,37.30 L 27.05,38.31 L 27.64,38.84 L 28.57,40.03 L 29.00,40.64 L 29.58,41.91 L 29.83,42.54 L 30.03,43.80 L 30.09,44.41 L 29.87,45.55 L 29.70,46.09 L 29.02,47.01 L 27.43,48.02 L 26.47,48.39 L 24.25,48.80 L 23.12,48.95 L 20.82,48.94 L 19.70,48.89 L 17.70,48.49 L 16.77,48.24 M 25.47,40.05 L 25.55,39.92 L 25.33,39.61 L 25.17,39.44 L 24.58,39.08 L 23.91,38.72 L 21.94,38.00 L 20.94,37.68 L 19.03,37.28 L 18.60,37.22 L 17.91,37.20 L 17.28,37.39 L 17.13,37.53 L 17.08,38.21 L 17.35,39.46 L 17.43,39.67 L 17.84,40.04 L 18.09,40.22 L 18.75,40.50 L 19.47,40.76 L 21.28,41.00 L 22.20,41.06 L 23.88,40.87 L 24.26,40.79 L 24.87,40.55 L 25.14,40.41 M 13.93,32.37 L 13.58,31.72 L 12.64,30.70 L 11.33,30.00 L 10.87,30.00 L 10.33,30.21 L 10.13,30.36 L 10.12,30.98 L 10.19,31.35 L 10.73,32.51 L 12.20,35.00 L 12.65,35.72 L 13.32,36.69 L 13.62,37.10 L 14.05,37.48 L 14.24,37.60 L 14.50,37.43 L 14.79,36.62 L 14.90,36.10 L 14.71,34.59 L 14.55,33.82 M 13.90,24.85 L 14.26,23.83 L 14.70,22.02 L 14.88,21.17 L 14.97,19.84 L 14.97,19.26 L 14.70,18.60 L 13.90,18.56 L 13.70,18.68 L 13.28,19.16 L 13.06,19.42 L 12.62,20.13 L 12.17,20.88 L 11.36,22.73 L 11.00,23.66 L 10.54,25.37 L 10.45,25.75 L 10.40,26.39 L 10.53,27.04 L 10.80,27.48 L 11.36,27.89 L 11.64,28.01 L 12.21,27.80 L 12.49,27.61 L 13.06,26.78 L 13.34,26.29 M 25.42,16.95 L 25.73,16.65 L 25.65,16.11 L 25.50,15.86 L 24.67,15.46 L 24.18,15.29 L 22.80,15.11 L 20.34,15.18 L 19.44,15.28 L 18.16,15.90 L 17.16,17.38 L 17.08,17.80 L 17.09,18.36 L 17.14,18.59 L 17.51,18.83 L 17.75,18.91 L 18.62,18.87 L 20.65,18.55 L 21.71,18.36 L 23.64,17.79 L 24.07,17.65 L 24.76,17.36 L 25.06,17.21 M 27.79,12.12 L 27.90,11.80 L 27.32,11.10 L 26.93,10.75 L 25.62,10.08 L 24.90,9.77 L 23.21,9.31 L 20.63,9.00 L 19.96,9.00 L 18.54,9.38 L 17.85,9.62 L 16.64,10.32 L 16.09,10.69 L 15.38,11.50 L 15.25,12.60 L 15.35,12.76 L 16.00,13.00 L 16.39,13.11 L 17.48,13.25 L 18.66,13.37 L 21.65,13.34 L 23.14,13.29 L 25.76,12.94 L 26.32,12.84 L 27.16,12.58 L 27.51,12.44 M 43.20,40.80 L 43.01,40.61 L 42.69,39.67 L 42.54,39.12 L 42.32,37.49 L 42.21,36.60 L 42.08,34.36 L 42.00,30.37 L 42.00,28.90 L 42.04,26.46 L 42.08,25.32 L 42.24,23.47 L 42.34,22.62 L 42.69,21.29 L 42.90,20.68 L 43.51,19.77 L 43.85,19.37 L 44.79,18.81 L 45.31,18.57 L 46.65,18.28 L 47.38,18.16 L 49.19,18.05 L 52.51,18.00 L 53.46,18.00 L 55.06,18.02 L 55.82,18.04 L 57.06,18.11 L 57.63,18.15 L 58.54,18.27 L 58.96,18.34 L 59.57,18.54 L 59.84,18.64 L 60.19,18.92 L 60.33,19.07 L 60.46,19.45 L 60.12,21.00 L 60.01,21.28 L 59.48,21.71 L 59.15,21.91 L 58.11,22.17 L 57.52,22.29 L 55.85,22.42 L 52.50,22.50 L 45.50,22.50 L 45.50,30.00 L 45.50,37.50 L 52.75,37.79 L 53.55,37.83 L 54.91,37.89 L 55.55,37.93 L 56.60,38.01 L 57.58,38.10 L 58.79,38.37 L 59.29,38.52 L 59.77,39.00 L 60.00,40.04 L 60.00,40.49 L 59.78,41.10 L 59.60,41.36 L 58.75,41.69 L 58.49,41.75 L 57.78,41.85 L 57.39,41.89 L 56.40,41.94 L 55.87,41.97 L 54.57,41.99 L 52.20,42.00 L 51.02,42.00 L 48.90,41.91 L 47.89,41.86 L 46.20,41.67 L 45.41,41.57 L 44.25,41.29 L 43.74,41.15 M 76.18,40.31 L 76.01,39.98 L 75.39,38.65 L 75.04,37.89 L 74.16,35.90 L 73.70,34.84 L 72.67,32.44 L 72.14,31.22 L 71.07,28.69 L 70.54,27.43 L 69.54,25.03 L 69.06,23.87 L 68.24,21.86 L 67.86,20.92 L 67.34,19.57 L 67.23,19.28 L 67.09,18.87 L 67.00,18.55 L 67.00,18.40 L 67.55,18.16 L 68.89,18.00 L 69.24,18.00 L 69.95,18.40 L 70.30,18.68 L 71.07,19.74 L 71.46,20.36 L 72.38,22.20 L 74.00,26.00 L 74.44,27.10 L 75.31,29.11 L 75.73,30.06 L 76.48,31.65 L 76.84,32.38 L 77.40,33.37 L 77.93,34.00 L 78.03,34.00 L 78.46,33.37 L 78.72,32.96 L 79.40,31.65 L 79.76,30.93 L 80.60,29.11 L 81.94,26.00 L 82.56,24.50 L 83.59,22.22 L 84.09,21.19 L 84.93,19.75 L 85.33,19.13 L 86.07,18.41 L 87.12,18.00 L 87.64,18.00 L 88.43,18.22 L 88.94,18.75 L 88.93,18.89 L 88.80,19.37 L 88.72,19.65 L 88.47,20.37 L 88.19,21.14 L 87.34,23.24 L 86.88,24.35 L 85.76,26.92 L 85.18,28.23 L 83.93,30.96 L 83.31,32.31 L 82.07,34.90 L 81.46,36.16 L 80.37,38.32 L 79.86,39.31 L 79.05,40.74 L 78.88,41.04 L 78.60,41.44 L 78.32,41.73 L 77.99,41.84 L 77.20,41.47 L 76.82,41.22 M 97.48,39.62 L 97.18,39.16 L 96.75,38.02 L 96.56,37.39 L 96.32,35.75 L 96.22,34.84 L 96.15,32.47 L 96.21,27.87 L 96.50,18.50 L 105.82,18.21 L 106.96,18.18 L 108.83,18.12 L 109.71,18.10 L 111.11,18.09 L 111.75,18.09 L 112.75,18.13 L 113.20,18.15 L 113.85,18.26 L 114.14,18.32 L 114.51,18.50 L 114.67,18.60 L 114.83,18.87 L 114.82,20.10 L 114.75,20.60 L 114.45,21.28 L 114.25,21.58 L 113.44,21.95 L 112.95,22.11 L 111.30,22.27 L 110.81,22.30 L 109.63,22.34 L 107.50,22.39 L 100.50,22.50 L 100.50,30.00 L 100.50,37.50 L 107.75,37.79 L 108.55,37.83 L 109.91,37.89 L 110.55,37.93 L 111.60,38.01 L 112.58,38.10 L 113.79,38.37 L 114.29,38.52 L 114.77,39.00 L 115.00,40.04 L 115.00,40.49 L 114.77,41.10 L 114.59,41.37 L 113.73,41.69 L 113.46,41.76 L 112.73,41.85 L 112.34,41.89 L 111.33,41.94 L 110.78,41.97 L 109.45,41.99 L 107.02,42.00 L 106.11,42.00 L 104.58,41.99 L 103.85,41.98 L 102.65,41.93 L 101.53,41.88 L 100.05,41.63 L 99.40,41.46 L 98.55,40.91 L 98.16,40.58 M 137.00,34.97 L 137.00,33.34 L 137.17,30.49 L 137.29,29.12 L 137.72,26.78 L 137.97,25.67 L 138.69,23.81 L 139.09,22.93 L 140.11,21.51 L 140.67,20.85 L 142.03,19.85 L 142.75,19.40 L 144.48,18.78 L 145.39,18.51 L 147.51,18.24 L 151.15,18.20 L 157.50,18.50 L 157.78,30.25 L 157.82,31.64 L 157.86,33.94 L 157.88,35.03 L 157.89,36.77 L 157.89,37.58 L 157.86,38.85 L 157.83,39.43 L 157.74,40.29 L 157.68,40.68 L 157.52,41.21 L 157.43,41.44 L 157.18,41.73 L 156.10,42.00 L 155.75,42.00 L 155.18,41.85 L 154.92,41.74 L 154.52,41.36 L 154.33,41.14 L 154.07,40.51 L 153.82,39.25 L 153.74,38.59 L 153.50,37.70 L 153.34,37.32 L 152.67,36.84 L 152.24,36.65 L 150.76,36.43 L 150.32,36.38 L 149.24,36.31 L 147.25,36.20 L 141.00,35.90 L 141.00,38.95 L 141.00,39.55 L 140.91,40.43 L 140.84,40.83 L 140.59,41.37 L 140.43,41.60 L 139.97,41.86 L 139.00,42.00 L 138.55,42.00 L 137.92,41.80 L 137.65,41.63 L 137.32,40.87 L 137.18,40.39 L 137.06,38.75 L 137.03,38.27 L 137.01,37.10 L 137.00,36.47 M 153.80,27.25 L 153.73,26.09 L 153.57,24.54 L 153.46,23.87 L 153.07,23.09 L 152.82,22.77 L 151.98,22.46 L 149.95,22.20 L 148.76,22.10 L 146.54,22.54 L 145.48,22.85 L 143.69,23.97 L 142.87,24.60 L 141.73,26.24 L 141.00,29.07 L 141.00,32.00 L 147.55,32.00 L 154.11,32.00 L 153.80,27.25 M 167.00,30.00 L 167.00,28.58 L 167.01,26.23 L 167.02,25.13 L 167.05,23.34 L 167.07,22.52 L 167.13,21.22 L 167.17,20.63 L 167.29,19.75 L 167.36,19.35 L 167.54,18.81 L 167.64,18.57 L 167.89,18.28 L 169.00,18.00 L 169.47,18.00 L 170.10,18.25 L 170.38,18.46 L 170.70,19.50 L 170.77,19.83 L 170.86,20.73 L 170.90,21.23 L 170.95,22.50 L 170.97,23.19 L 170.99,24.89 L 171.00,28.00 L 171.00,38.00 L 178.50,38.00 L 179.35,38.00 L 180.78,38.01 L 181.46,38.02 L 182.55,38.06 L 183.07,38.08 L 183.88,38.15 L 184.25,38.19 L 184.81,38.32 L 185.32,38.45 L 185.79,38.92 L 186.00,40.00 L 186.00,40.46 L 185.76,41.10 L 185.56,41.37 L 184.56,41.70 L 184.24,41.76 L 183.39,41.86 L 182.92,41.90 L 181.71,41.95 L 181.06,41.97 L 179.44,41.99 L 176.50,42.00 L 167.00,42.00 L 167.00,30.00 M 194.48,39.62 L 194.18,39.16 L 193.75,38.02 L 193.56,37.39 L 193.32,35.75 L 193.22,34.84 L 193.15,32.47 L 193.21,27.87 L 193.50,18.50 L 202.82,18.21 L 203.96,18.18 L 205.83,18.12 L 206.71,18.10 L 208.11,18.09 L 208.75,18.09 L 209.75,18.13 L 210.20,18.15 L 210.85,18.26 L 211.14,18.32 L 211.51,18.50 L 211.67,18.60 L 211.83,18.87 L 211.82,20.10 L 211.75,20.60 L 211.45,21.28 L 211.25,21.58 L 210.44,21.95 L 209.95,22.11 L 208.30,22.27 L 207.81,22.30 L 206.63,22.34 L 204.50,22.39 L 197.50,22.50 L 197.50,30.00 L 197.50,37.50 L 204.75,37.79 L 205.55,37.83 L 206.91,37.89 L 207.55,37.93 L 208.60,38.01 L 209.58,38.10 L 210.79,38.37 L 211.29,38.52 L 211.77,39.00 L 212.00,40.04 L 212.00,40.49 L 211.77,41.10 L 211.59,41.37 L 210.73,41.69 L 210.46,41.76 L 209.73,41.85 L 209.34,41.89 L 208.33,41.94 L 207.78,41.97 L 206.45,41.99 L 204.02,42.00 L 203.11,42.00 L 201.58,41.99 L 200.85,41.98 L 199.65,41.93 L 198.53,41.88 L 197.05,41.63 L 196.40,41.46 L 195.55,40.91 L 195.16,40.58 M 220.22,30.25 L 220.50,18.50 L 229.48,18.21 L 230.78,18.17 L 232.95,18.14 L 233.97,18.14 L 235.65,18.24 L 236.43,18.30 L 237.68,18.55 L 238.25,18.70 L 239.12,19.14 L 239.52,19.39 L 240.09,20.07 L 240.34,20.45 L 240.66,21.41 L 240.79,21.92 L 240.93,23.20 L 241.00,25.50 L 241.00,26.51 L 240.62,28.42 L 240.37,29.35 L 239.55,30.99 L 239.09,31.76 L 237.90,33.00 L 235.81,34.27 L 235.58,34.35 L 235.44,34.70 L 235.41,34.91 L 235.66,35.52 L 235.84,35.86 L 236.50,36.74 L 237.95,38.37 L 241.39,42.00 L 238.36,42.00 L 237.79,42.00 L 236.74,41.79 L 236.22,41.65 L 235.17,41.12 L 234.65,40.80 L 233.52,39.88 L 231.62,38.00 L 230.60,36.90 L 228.72,35.17 L 228.30,34.81 L 227.62,34.32 L 226.96,34.00 L 226.70,34.00 L 226.28,33.41 L 226.00,32.00 L 226.00,31.58 L 226.16,30.98 L 226.28,30.71 L 226.78,30.37 L 227.09,30.22 L 228.08,30.07 L 230.25,29.98 L 231.63,29.98 L 233.67,29.76 L 234.58,29.61 L 235.77,29.01 L 236.27,28.66 L 236.75,27.61 L 236.83,25.39 L 236.75,24.68 L 236.53,23.75 L 236.38,23.34 L 235.75,22.88 L 235.34,22.70 L 233.92,22.55 L 233.50,22.53 L 232.45,22.51 L 230.50,22.50 L 224.50,22.50 L 224.21,32.25 L 224.18,33.37 L 224.12,35.25 L 224.08,36.13 L 224.00,37.56 L 223.96,38.23 L 223.86,39.28 L 223.80,39.77 L 223.66,40.49 L 223.51,41.15 L 223.03,41.74 L 221.93,42.00 L 221.46,42.00 L 220.83,41.73 L 220.69,41.62 L 220.49,41.23 L 220.39,41.00 L 220.26,40.31 L 220.21,39.93 L 220.14,38.88 L 220.12,38.30 L 220.11,36.80 L 220.11,35.99 L 220.14,33.96 L 220.16,32.88 M 255.79,32.25 L 255.50,22.50 L 251.75,22.19 L 251.02,22.13 L 249.92,21.95 L 249.44,21.85 L 248.77,21.54 L 248.49,21.37 L 248.17,20.90 L 248.00,19.94 L 248.00,19.49 L 248.27,18.88 L 248.48,18.62 L 249.55,18.30 L 249.89,18.23 L 250.80,18.14 L 251.30,18.10 L 252.57,18.05 L 253.26,18.03 L 254.97,18.01 L 258.07,18.00 L 259.30,18.00 L 261.34,18.01 L 262.28,18.01 L 263.80,18.04 L 264.50,18.06 L 265.57,18.13 L 266.06,18.17 L 266.76,18.30 L 267.07,18.37 L 267.47,18.57 L 267.64,18.68 L 267.82,18.97 L 267.82,20.25 L 267.75,20.74 L 267.52,21.41 L 267.38,21.71 L 266.90,22.05 L 266.61,22.18 L 265.72,22.27 L 263.75,22.17 L 260.00,21.85 L 260.00,31.92 L 260.00,33.09 L 259.99,35.04 L 259.98,35.95 L 259.95,37.44 L 259.93,38.13 L 259.86,39.22 L 259.82,39.72 L 259.70,40.47 L 259.57,41.14 L 259.11,41.74 L 258.04,42.00 L 257.59,42.00 L 256.96,41.73 L 256.69,41.52 L 256.34,40.47 L 256.26,40.14 L 256.14,39.26 L 256.08,38.77 L 256.00,37.54 L 255.95,36.87 L 255.88,35.23 L 255.85,34.35 M 275.00,40.00 L 275.00,39.55 L 275.21,38.92 L 275.38,38.65 L 276.17,38.32 L 276.42,38.25 L 277.09,38.15 L 277.46,38.11 L 278.39,38.06 L 278.90,38.03 L 280.13,38.01 L 282.38,38.00 L 283.77,38.00 L 285.94,37.92 L 286.94,37.86 L 288.44,37.65 L 289.12,37.52 L 290.09,37.15 L 291.09,36.39 L 291.34,36.09 L 291.60,35.50 L 291.69,35.21 L 291.64,34.67 L 291.57,34.41 L 291.22,33.92 L 291.01,33.69 L 290.38,33.28 L 289.68,32.88 L 287.55,32.34 L 283.38,32.00 L 282.59,32.00 L 281.20,31.92 L 280.53,31.86 L 279.39,31.66 L 278.85,31.54 L 277.94,31.19 L 277.51,31.00 L 276.81,30.51 L 276.16,29.97 L 275.42,28.38 L 275.00,25.08 L 275.00,24.35 L 275.11,23.09 L 275.19,22.50 L 275.49,21.49 L 275.66,21.02 L 276.18,20.24 L 276.46,19.88 L 277.23,19.31 L 277.65,19.06 L 278.70,18.68 L 279.27,18.51 L 280.64,18.30 L 281.37,18.22 L 283.10,18.16 L 286.13,18.20 L 286.94,18.24 L 288.31,18.30 L 288.96,18.34 L 290.03,18.42 L 291.02,18.51 L 292.25,18.78 L 292.77,18.93 L 293.26,19.40 L 293.50,20.43 L 293.50,20.86 L 293.30,21.45 L 293.15,21.71 L 292.43,22.00 L 291.97,22.11 L 290.44,22.18 L 290.00,22.19 L 288.90,22.17 L 286.92,22.11 L 285.68,22.07 L 283.74,22.08 L 282.85,22.10 L 281.50,22.27 L 280.88,22.37 L 280.00,22.71 L 279.05,23.44 L 278.76,23.78 L 278.42,24.43 L 278.29,24.74 L 278.25,25.32 L 278.26,25.60 L 278.52,26.10 L 278.68,26.34 L 279.21,26.76 L 279.51,26.96 L 280.32,27.29 L 280.75,27.44 L 281.82,27.68 L 282.39,27.78 L 283.71,27.92 L 285.97,28.00 L 286.81,28.00 L 288.30,28.09 L 289.01,28.15 L 290.23,28.37 L 290.82,28.49 L 291.80,28.85 L 292.26,29.05 L 293.02,29.57 L 293.37,29.85 L 293.93,30.54 L 294.18,30.91 L 294.54,31.79 L 294.70,32.25 L 294.89,33.32 L 295.00,35.17 L 295.00,35.87 L 294.89,37.06 L 294.81,37.62 L 294.50,38.58 L 294.32,39.03 L 293.79,39.77 L 293.49,40.11 L 292.68,40.66 L 292.24,40.92 L 291.13,41.30 L 290.53,41.47 L 289.07,41.71 L 288.29,41.82 L 286.43,41.93 L 283.17,42.00 L 282.23,42.00 L 280.67,41.99 L 279.93,41.98 L 278.73,41.95 L 278.17,41.92 L 277.29,41.85 L 276.88,41.81 L 276.27,41.69 L 275.72,41.55 L 275.22,41.09 L 275.04,40.81 M 101.74,31.40 L 101.57,31.24 L 101.47,30.57 L 101.68,29.40 L 101.77,29.16 L 102.24,28.78 L 102.52,28.60 L 103.39,28.34 L 103.88,28.22 L 105.17,28.08 L 107.61,28.00 L 108.79,28.00 L 110.44,28.07 L 111.17,28.12 L 112.08,28.34 L 112.45,28.48 L 112.82,28.95 L 113.00,30.00 L 113.00,30.44 L 112.82,31.05 L 112.69,31.32 L 112.08,31.66 L 111.71,31.80 L 110.47,31.93 L 107.67,32.00 L 106.20,32.00 L 103.72,31.82 L 103.19,31.77 L 102.39,31.63 L 102.05,31.56 M 198.50,31.00 L 198.19,30.50 L 198.17,29.68 L 198.27,29.31 L 199.07,28.74 L 199.57,28.50 L 201.20,28.19 L 204.56,28.00 L 205.75,28.00 L 207.42,28.07 L 208.16,28.12 L 209.07,28.34 L 209.45,28.48 L 209.82,28.95 L 210.00,30.00 L 210.00,30.44 L 209.82,31.05 L 209.68,31.32 L 209.07,31.66 L 208.69,31.80 L 207.42,31.93 L 204.56,32.00 L 203.06,32.00 L 200.53,31.71 L 199.99,31.62 L 199.17,31.39 L 198.82,31.27 Z" fill="#ffffff"/>
</g>
</svg>